<svg width="454" height="911" viewBox="0 0 454 911" fill="none" xmlns="http://www.w3.org/2000/svg">
<g filter="url(#filter0_ii)">
<path d="M3.43726 98.8891C3.43726 64.2747 3.43726 46.9674 10.1704 33.7465C16.0931 22.117 25.5435 12.6619 37.1674 6.73642C50.382 0 67.6808 0 102.278 0H351.431C386.029 0 403.328 0 416.542 6.73642C428.166 12.6619 437.617 22.117 443.539 33.7465C450.272 46.9674 450.272 64.2747 450.272 98.8891V804.111C450.272 838.725 450.272 856.033 443.539 869.253C437.617 880.883 428.166 890.338 416.542 896.264C403.328 903 386.029 903 351.431 903H102.278C67.6808 903 50.382 903 37.1674 896.264C25.5435 890.338 16.0931 880.883 10.1704 869.253C3.43726 856.033 3.43726 838.725 3.43726 804.111V98.8891Z" fill="#F2F2F2"/>
</g>
<path d="M30.9346 87.3095C30.9346 66.2015 30.9346 55.6475 35.0452 47.5853C38.661 40.4936 44.4305 34.7278 51.5269 31.1144C59.5943 27.0065 70.1553 27.0065 91.2771 27.0065H362.923C384.045 27.0065 394.606 27.0065 402.674 31.1144C409.77 34.7278 415.539 40.4936 419.155 47.5853C423.266 55.6475 423.266 66.2015 423.266 87.3096V815.69C423.266 836.798 423.266 847.352 419.155 855.415C415.539 862.506 409.77 868.272 402.674 871.886C394.606 875.993 384.045 875.993 362.923 875.993H91.2772C70.1553 875.993 59.5943 875.993 51.5269 871.886C44.4305 868.272 38.661 862.506 35.0452 855.415C30.9346 847.352 30.9346 836.798 30.9346 815.69V87.3095Z" fill="black"/>
<path d="M205.11 547.165H203.183V551H201.453V541.047H204.953C206.102 541.047 206.988 541.304 207.612 541.819C208.237 542.334 208.549 543.079 208.549 544.055C208.549 544.72 208.387 545.278 208.063 545.729C207.744 546.176 207.298 546.52 206.724 546.762L208.959 550.911V551H207.106L205.11 547.165ZM203.183 545.777H204.96C205.543 545.777 205.999 545.632 206.327 545.34C206.655 545.044 206.819 544.64 206.819 544.13C206.819 543.597 206.667 543.184 206.361 542.893C206.061 542.601 205.609 542.451 205.008 542.441H203.183V545.777ZM213.286 551.137C212.233 551.137 211.379 550.806 210.723 550.146C210.071 549.48 209.745 548.596 209.745 547.493V547.288C209.745 546.55 209.886 545.891 210.169 545.312C210.456 544.729 210.857 544.276 211.372 543.952C211.887 543.629 212.461 543.467 213.095 543.467C214.102 543.467 214.879 543.788 215.426 544.431C215.977 545.073 216.253 545.982 216.253 547.158V547.828H211.42C211.47 548.439 211.673 548.922 212.028 549.277C212.388 549.633 212.84 549.811 213.382 549.811C214.143 549.811 214.763 549.503 215.241 548.888L216.137 549.742C215.84 550.184 215.444 550.528 214.947 550.774C214.455 551.016 213.901 551.137 213.286 551.137ZM213.088 544.8C212.632 544.8 212.263 544.959 211.98 545.278C211.702 545.597 211.525 546.042 211.447 546.611H214.612V546.488C214.576 545.932 214.428 545.513 214.168 545.23C213.908 544.943 213.548 544.8 213.088 544.8ZM217.258 547.247C217.258 546.099 217.527 545.183 218.064 544.499C218.607 543.811 219.325 543.467 220.218 543.467C221.061 543.467 221.724 543.761 222.207 544.349L222.282 543.604H223.779V550.774C223.779 551.745 223.476 552.511 222.87 553.071C222.269 553.632 221.455 553.912 220.43 553.912C219.887 553.912 219.356 553.798 218.837 553.57C218.322 553.347 217.93 553.053 217.661 552.688L218.447 551.69C218.958 552.297 219.587 552.6 220.334 552.6C220.885 552.6 221.321 552.449 221.64 552.148C221.959 551.852 222.118 551.415 222.118 550.836V550.337C221.64 550.87 221.002 551.137 220.204 551.137C219.338 551.137 218.63 550.793 218.078 550.104C217.531 549.416 217.258 548.464 217.258 547.247ZM218.912 547.391C218.912 548.133 219.062 548.719 219.363 549.147C219.669 549.571 220.09 549.783 220.628 549.783C221.298 549.783 221.795 549.496 222.118 548.922V545.668C221.804 545.107 221.312 544.827 220.642 544.827C220.095 544.827 219.669 545.044 219.363 545.477C219.062 545.91 218.912 546.548 218.912 547.391ZM227.259 551H225.598V543.604H227.259V551ZM225.495 541.683C225.495 541.427 225.575 541.215 225.734 541.047C225.898 540.878 226.131 540.794 226.432 540.794C226.732 540.794 226.965 540.878 227.129 541.047C227.293 541.215 227.375 541.427 227.375 541.683C227.375 541.933 227.293 542.143 227.129 542.312C226.965 542.476 226.732 542.558 226.432 542.558C226.131 542.558 225.898 542.476 225.734 542.312C225.575 542.143 225.495 541.933 225.495 541.683ZM233.22 548.99C233.22 548.694 233.097 548.468 232.851 548.313C232.609 548.159 232.206 548.022 231.641 547.903C231.076 547.785 230.604 547.634 230.226 547.452C229.396 547.051 228.981 546.47 228.981 545.709C228.981 545.071 229.25 544.538 229.788 544.109C230.326 543.681 231.009 543.467 231.839 543.467C232.723 543.467 233.436 543.686 233.979 544.123C234.525 544.561 234.799 545.128 234.799 545.825H233.138C233.138 545.506 233.019 545.242 232.782 545.032C232.545 544.818 232.231 544.711 231.839 544.711C231.474 544.711 231.176 544.795 230.943 544.964C230.715 545.132 230.602 545.358 230.602 545.641C230.602 545.896 230.709 546.094 230.923 546.235C231.137 546.377 231.57 546.52 232.222 546.666C232.873 546.807 233.384 546.978 233.753 547.179C234.127 547.375 234.402 547.612 234.58 547.89C234.762 548.168 234.854 548.505 234.854 548.901C234.854 549.567 234.578 550.107 234.026 550.521C233.475 550.932 232.753 551.137 231.859 551.137C231.253 551.137 230.713 551.027 230.239 550.809C229.765 550.59 229.396 550.289 229.132 549.906C228.868 549.523 228.735 549.111 228.735 548.669H230.349C230.371 549.061 230.52 549.364 230.793 549.578C231.066 549.788 231.429 549.893 231.88 549.893C232.317 549.893 232.65 549.811 232.878 549.646C233.106 549.478 233.22 549.259 233.22 548.99ZM238.388 541.806V543.604H239.693V544.834H238.388V548.963C238.388 549.245 238.442 549.451 238.552 549.578C238.666 549.701 238.866 549.763 239.153 549.763C239.345 549.763 239.538 549.74 239.734 549.694V550.979C239.356 551.084 238.992 551.137 238.641 551.137C237.365 551.137 236.727 550.433 236.727 549.024V544.834H235.51V543.604H236.727V541.806H238.388ZM244.226 551.137C243.173 551.137 242.318 550.806 241.662 550.146C241.01 549.48 240.685 548.596 240.685 547.493V547.288C240.685 546.55 240.826 545.891 241.108 545.312C241.396 544.729 241.797 544.276 242.312 543.952C242.826 543.629 243.401 543.467 244.034 543.467C245.041 543.467 245.818 543.788 246.365 544.431C246.917 545.073 247.192 545.982 247.192 547.158V547.828H242.359C242.41 548.439 242.612 548.922 242.968 549.277C243.328 549.633 243.779 549.811 244.321 549.811C245.082 549.811 245.702 549.503 246.181 548.888L247.076 549.742C246.78 550.184 246.383 550.528 245.887 550.774C245.395 551.016 244.841 551.137 244.226 551.137ZM244.027 544.8C243.572 544.8 243.202 544.959 242.92 545.278C242.642 545.597 242.464 546.042 242.387 546.611H245.552V546.488C245.515 545.932 245.367 545.513 245.107 545.23C244.848 544.943 244.488 544.8 244.027 544.8ZM252.36 545.121C252.142 545.085 251.916 545.066 251.684 545.066C250.923 545.066 250.41 545.358 250.146 545.941V551H248.484V543.604H250.07L250.111 544.431C250.512 543.788 251.068 543.467 251.779 543.467C252.016 543.467 252.212 543.499 252.367 543.562L252.36 545.121Z" fill="#5FFF9F"/>
<rect x="71" y="487" width="312" height="40" rx="20" fill="#5FFF9F"/>
<path d="M204.617 510.894C204.929 510.894 205.187 510.996 205.391 511.2C205.607 511.392 205.715 511.644 205.715 511.956C205.715 512.256 205.607 512.508 205.391 512.712C205.187 512.904 204.929 513 204.617 513H198.767C198.455 513 198.191 512.898 197.975 512.694C197.771 512.478 197.669 512.214 197.669 511.902V501.498C197.669 501.186 197.777 500.928 197.993 500.724C198.209 500.508 198.485 500.4 198.821 500.4C199.121 500.4 199.379 500.508 199.595 500.724C199.811 500.928 199.919 501.186 199.919 501.498V510.894H204.617ZM219.193 506.7C219.193 507.888 218.929 508.98 218.401 509.976C217.873 510.96 217.141 511.74 216.205 512.316C215.281 512.892 214.237 513.18 213.073 513.18C211.909 513.18 210.859 512.892 209.923 512.316C208.999 511.74 208.273 510.96 207.745 509.976C207.229 508.98 206.971 507.888 206.971 506.7C206.971 505.512 207.229 504.426 207.745 503.442C208.273 502.446 208.999 501.66 209.923 501.084C210.859 500.508 211.909 500.22 213.073 500.22C214.237 500.22 215.281 500.508 216.205 501.084C217.141 501.66 217.873 502.446 218.401 503.442C218.929 504.426 219.193 505.512 219.193 506.7ZM216.853 506.7C216.853 505.896 216.691 505.17 216.367 504.522C216.043 503.862 215.593 503.34 215.017 502.956C214.441 502.572 213.793 502.38 213.073 502.38C212.341 502.38 211.687 502.572 211.111 502.956C210.547 503.328 210.103 503.844 209.779 504.504C209.467 505.164 209.311 505.896 209.311 506.7C209.311 507.504 209.467 508.236 209.779 508.896C210.103 509.556 210.547 510.078 211.111 510.462C211.687 510.834 212.341 511.02 213.073 511.02C213.793 511.02 214.441 510.828 215.017 510.444C215.593 510.06 216.043 509.544 216.367 508.896C216.691 508.236 216.853 507.504 216.853 506.7ZM230.547 506.196C230.859 506.196 231.117 506.304 231.321 506.52C231.525 506.724 231.627 506.982 231.627 507.294V511.11C231.627 511.53 231.441 511.854 231.069 512.082C229.893 512.814 228.603 513.18 227.199 513.18C226.011 513.18 224.913 512.892 223.905 512.316C222.897 511.728 222.099 510.942 221.511 509.958C220.923 508.962 220.629 507.876 220.629 506.7C220.629 505.524 220.923 504.444 221.511 503.46C222.099 502.464 222.897 501.678 223.905 501.102C224.913 500.514 226.011 500.22 227.199 500.22C228.387 500.22 229.419 500.46 230.295 500.94C230.475 501.036 230.607 501.162 230.691 501.318C230.787 501.474 230.835 501.642 230.835 501.822C230.835 502.122 230.733 502.386 230.529 502.614C230.337 502.83 230.097 502.938 229.809 502.938C229.629 502.938 229.431 502.89 229.215 502.794C228.567 502.518 227.895 502.38 227.199 502.38C226.431 502.38 225.723 502.578 225.075 502.974C224.427 503.358 223.911 503.88 223.527 504.54C223.155 505.2 222.969 505.92 222.969 506.7C222.969 507.48 223.155 508.2 223.527 508.86C223.911 509.52 224.427 510.048 225.075 510.444C225.723 510.828 226.431 511.02 227.199 511.02C227.535 511.02 227.895 510.99 228.279 510.93C228.663 510.87 228.999 510.792 229.287 510.696V508.356H227.595C227.283 508.356 227.019 508.254 226.803 508.05C226.599 507.846 226.497 507.588 226.497 507.276C226.497 506.964 226.599 506.706 226.803 506.502C227.019 506.298 227.283 506.196 227.595 506.196H230.547ZM241.087 511.902C241.087 512.214 240.973 512.478 240.745 512.694C240.517 512.898 240.253 513 239.953 513C239.629 513 239.359 512.898 239.143 512.694C238.939 512.478 238.837 512.214 238.837 511.902V501.498C238.837 501.186 238.945 500.928 239.161 500.724C239.377 500.508 239.653 500.4 239.989 500.4C240.289 500.4 240.547 500.508 240.763 500.724C240.979 500.928 241.087 501.186 241.087 501.498V511.902ZM253.352 500.4C253.64 500.4 253.874 500.496 254.054 500.688C254.234 500.88 254.324 501.12 254.324 501.408V511.902C254.324 512.214 254.216 512.478 254 512.694C253.796 512.898 253.538 513 253.226 513C253.058 513 252.89 512.976 252.722 512.928C252.566 512.868 252.452 512.79 252.38 512.694L245.774 504.306V511.992C245.774 512.28 245.678 512.52 245.486 512.712C245.306 512.904 245.066 513 244.766 513C244.478 513 244.244 512.904 244.064 512.712C243.884 512.52 243.794 512.28 243.794 511.992V501.498C243.794 501.186 243.896 500.928 244.1 500.724C244.316 500.508 244.58 500.4 244.892 500.4C245.072 500.4 245.246 500.436 245.414 500.508C245.594 500.58 245.726 500.676 245.81 500.796L252.362 509.148V501.408C252.362 501.12 252.452 500.88 252.632 500.688C252.824 500.496 253.064 500.4 253.352 500.4Z" fill="white"/>
<rect x="71.5" y="419.5" width="311" height="39" rx="19.5" stroke="white"/>
<circle cx="119" cy="439" r="5" fill="white"/>
<circle cx="175.667" cy="439" r="5" fill="white"/>
<circle cx="133.167" cy="439" r="5" fill="white"/>
<circle cx="189.833" cy="439" r="5" fill="white"/>
<circle cx="147.333" cy="439" r="5" fill="white"/>
<circle cx="204" cy="439" r="5" fill="white"/>
<circle cx="161.5" cy="439" r="5" fill="white"/>
<circle cx="218.167" cy="439" r="5" fill="white"/>
<path d="M99 435H98V433C98 430.24 95.76 428 93 428C90.24 428 88 430.24 88 433V435H87C85.9 435 85 435.9 85 437V447C85 448.1 85.9 449 87 449H99C100.1 449 101 448.1 101 447V437C101 435.9 100.1 435 99 435ZM93 444C91.9 444 91 443.1 91 442C91 440.9 91.9 440 93 440C94.1 440 95 440.9 95 442C95 443.1 94.1 444 93 444ZM96.1 435H89.9V433C89.9 431.29 91.29 429.9 93 429.9C94.71 429.9 96.1 431.29 96.1 433V435Z" fill="white"/>
<rect x="71.5" y="349.5" width="311" height="39" rx="19.5" stroke="white"/>
<path d="M101 361H85C83.9 361 83.01 361.9 83.01 363L83 375C83 376.1 83.9 377 85 377H101C102.1 377 103 376.1 103 375V363C103 361.9 102.1 361 101 361ZM101 365L93 370L85 365V363L93 368L101 363V365Z" fill="white"/>
<path d="M124.967 365.469H126.098V371.51C126.098 372.326 125.852 372.965 125.359 373.426C124.871 373.887 124.219 374.117 123.402 374.117C122.555 374.117 121.895 373.9 121.422 373.467C120.949 373.033 120.713 372.426 120.713 371.645H121.838C121.838 372.133 121.971 372.514 122.236 372.787C122.506 373.061 122.895 373.197 123.402 373.197C123.867 373.197 124.242 373.051 124.527 372.758C124.816 372.465 124.963 372.055 124.967 371.527V365.469ZM130.475 374.117C129.615 374.117 128.916 373.836 128.377 373.273C127.838 372.707 127.568 371.951 127.568 371.006V370.807C127.568 370.178 127.688 369.617 127.926 369.125C128.168 368.629 128.504 368.242 128.934 367.965C129.367 367.684 129.836 367.543 130.34 367.543C131.164 367.543 131.805 367.814 132.262 368.357C132.719 368.9 132.947 369.678 132.947 370.689V371.141H128.652C128.668 371.766 128.85 372.271 129.197 372.658C129.549 373.041 129.994 373.232 130.533 373.232C130.916 373.232 131.24 373.154 131.506 372.998C131.771 372.842 132.004 372.635 132.203 372.377L132.865 372.893C132.334 373.709 131.537 374.117 130.475 374.117ZM130.34 368.434C129.902 368.434 129.535 368.594 129.238 368.914C128.941 369.23 128.758 369.676 128.688 370.25H131.863V370.168C131.832 369.617 131.684 369.191 131.418 368.891C131.152 368.586 130.793 368.434 130.34 368.434ZM134.74 374V368.498H133.738V367.66H134.74V367.01C134.74 366.33 134.922 365.805 135.285 365.434C135.648 365.062 136.162 364.877 136.826 364.877C137.076 364.877 137.324 364.91 137.57 364.977L137.512 365.855C137.328 365.82 137.133 365.803 136.926 365.803C136.574 365.803 136.303 365.906 136.111 366.113C135.92 366.316 135.824 366.609 135.824 366.992V367.66H137.178V368.498H135.824V374H134.74ZM138.912 374V368.498H137.91V367.66H138.912V367.01C138.912 366.33 139.094 365.805 139.457 365.434C139.82 365.062 140.334 364.877 140.998 364.877C141.248 364.877 141.496 364.91 141.742 364.977L141.684 365.855C141.5 365.82 141.305 365.803 141.098 365.803C140.746 365.803 140.475 365.906 140.283 366.113C140.092 366.316 139.996 366.609 139.996 366.992V367.66H141.35V368.498H139.996V374H138.912ZM142.574 373.432C142.574 373.244 142.629 373.088 142.738 372.963C142.852 372.838 143.02 372.775 143.242 372.775C143.465 372.775 143.633 372.838 143.746 372.963C143.863 373.088 143.922 373.244 143.922 373.432C143.922 373.611 143.863 373.762 143.746 373.883C143.633 374.004 143.465 374.064 143.242 374.064C143.02 374.064 142.852 374.004 142.738 373.883C142.629 373.762 142.574 373.611 142.574 373.432ZM146.834 367.66V374.732C146.834 375.951 146.281 376.561 145.176 376.561C144.938 376.561 144.717 376.525 144.514 376.455V375.588C144.639 375.619 144.803 375.635 145.006 375.635C145.248 375.635 145.432 375.568 145.557 375.436C145.686 375.307 145.75 375.08 145.75 374.756V367.66H146.834ZM145.639 365.979C145.639 365.807 145.691 365.66 145.797 365.539C145.906 365.414 146.064 365.352 146.271 365.352C146.482 365.352 146.643 365.412 146.752 365.533C146.861 365.654 146.916 365.803 146.916 365.979C146.916 366.154 146.861 366.301 146.752 366.418C146.643 366.535 146.482 366.594 146.271 366.594C146.061 366.594 145.902 366.535 145.797 366.418C145.691 366.301 145.639 366.154 145.639 365.979ZM149.764 374H148.68V367.66H149.764V374ZM148.592 365.979C148.592 365.803 148.645 365.654 148.75 365.533C148.859 365.412 149.02 365.352 149.23 365.352C149.441 365.352 149.602 365.412 149.711 365.533C149.82 365.654 149.875 365.803 149.875 365.979C149.875 366.154 149.82 366.301 149.711 366.418C149.602 366.535 149.441 366.594 149.23 366.594C149.02 366.594 148.859 366.535 148.75 366.418C148.645 366.301 148.592 366.154 148.592 365.979ZM155.418 374C155.355 373.875 155.305 373.652 155.266 373.332C154.762 373.855 154.16 374.117 153.461 374.117C152.836 374.117 152.322 373.941 151.92 373.59C151.521 373.234 151.322 372.785 151.322 372.242C151.322 371.582 151.572 371.07 152.072 370.707C152.576 370.34 153.283 370.156 154.193 370.156H155.248V369.658C155.248 369.279 155.135 368.979 154.908 368.756C154.682 368.529 154.348 368.416 153.906 368.416C153.52 368.416 153.195 368.514 152.934 368.709C152.672 368.904 152.541 369.141 152.541 369.418H151.451C151.451 369.102 151.562 368.797 151.785 368.504C152.012 368.207 152.316 367.973 152.699 367.801C153.086 367.629 153.51 367.543 153.971 367.543C154.701 367.543 155.273 367.727 155.688 368.094C156.102 368.457 156.316 368.959 156.332 369.6V372.518C156.332 373.1 156.406 373.562 156.555 373.906V374H155.418ZM153.619 373.174C153.959 373.174 154.281 373.086 154.586 372.91C154.891 372.734 155.111 372.506 155.248 372.225V370.924H154.398C153.07 370.924 152.406 371.312 152.406 372.09C152.406 372.43 152.52 372.695 152.746 372.887C152.973 373.078 153.264 373.174 153.619 373.174ZM159.057 367.66L159.092 368.457C159.576 367.848 160.209 367.543 160.99 367.543C162.33 367.543 163.006 368.299 163.018 369.811V374H161.934V369.805C161.93 369.348 161.824 369.01 161.617 368.791C161.414 368.572 161.096 368.463 160.662 368.463C160.311 368.463 160.002 368.557 159.736 368.744C159.471 368.932 159.264 369.178 159.115 369.482V374H158.031V367.66H159.057ZM164.395 370.777C164.395 369.789 164.623 369.004 165.08 368.422C165.537 367.836 166.143 367.543 166.896 367.543C167.67 367.543 168.273 367.816 168.707 368.363L168.76 367.66H169.75V373.848C169.75 374.668 169.506 375.314 169.018 375.787C168.533 376.26 167.881 376.496 167.061 376.496C166.604 376.496 166.156 376.398 165.719 376.203C165.281 376.008 164.947 375.74 164.717 375.4L165.279 374.75C165.744 375.324 166.312 375.611 166.984 375.611C167.512 375.611 167.922 375.463 168.215 375.166C168.512 374.869 168.66 374.451 168.66 373.912V373.367C168.227 373.867 167.635 374.117 166.885 374.117C166.143 374.117 165.541 373.818 165.08 373.221C164.623 372.623 164.395 371.809 164.395 370.777ZM165.484 370.9C165.484 371.615 165.631 372.178 165.924 372.588C166.217 372.994 166.627 373.197 167.154 373.197C167.838 373.197 168.34 372.887 168.66 372.266V369.371C168.328 368.766 167.83 368.463 167.166 368.463C166.639 368.463 166.227 368.668 165.93 369.078C165.633 369.488 165.484 370.096 165.484 370.9ZM171.414 373.432C171.414 373.244 171.469 373.088 171.578 372.963C171.691 372.838 171.859 372.775 172.082 372.775C172.305 372.775 172.473 372.838 172.586 372.963C172.703 373.088 172.762 373.244 172.762 373.432C172.762 373.611 172.703 373.762 172.586 373.883C172.473 374.004 172.305 374.064 172.082 374.064C171.859 374.064 171.691 374.004 171.578 373.883C171.469 373.762 171.414 373.611 171.414 373.432ZM180.168 372.506L181.387 367.66H182.471L180.625 374H179.746L178.205 369.195L176.705 374H175.826L173.986 367.66H175.064L176.312 372.406L177.789 367.66H178.662L180.168 372.506ZM187.492 373.373C187.07 373.869 186.451 374.117 185.635 374.117C184.959 374.117 184.443 373.922 184.088 373.531C183.736 373.137 183.559 372.555 183.555 371.785V367.66H184.639V371.756C184.639 372.717 185.029 373.197 185.811 373.197C186.639 373.197 187.189 372.889 187.463 372.271V367.66H188.547V374H187.516L187.492 373.373ZM199.562 371.059C199.516 372.004 199.281 372.75 198.859 373.297C198.438 373.844 197.873 374.117 197.166 374.117C196.436 374.117 195.967 373.789 195.76 373.133C195.549 373.465 195.307 373.713 195.033 373.877C194.764 374.037 194.484 374.117 194.195 374.117C193.641 374.117 193.221 373.891 192.936 373.438C192.65 372.984 192.545 372.357 192.619 371.557C192.678 370.912 192.824 370.338 193.059 369.834C193.297 369.326 193.602 368.928 193.973 368.639C194.348 368.35 194.74 368.205 195.15 368.205C195.467 368.205 195.75 368.248 196 368.334C196.25 368.416 196.531 368.58 196.844 368.826L196.539 372.072C196.465 372.975 196.715 373.426 197.289 373.426C197.73 373.426 198.088 373.207 198.361 372.77C198.635 372.332 198.783 371.762 198.807 371.059C198.881 369.539 198.598 368.381 197.957 367.584C197.32 366.787 196.35 366.389 195.045 366.389C194.26 366.389 193.562 366.584 192.953 366.975C192.344 367.361 191.863 367.922 191.512 368.656C191.16 369.391 190.963 370.238 190.92 371.199C190.873 372.168 190.99 373.01 191.271 373.725C191.553 374.436 191.98 374.979 192.555 375.354C193.133 375.732 193.83 375.922 194.646 375.922C194.998 375.922 195.35 375.879 195.701 375.793C196.057 375.707 196.352 375.596 196.586 375.459L196.803 376.133C196.561 376.285 196.238 376.41 195.836 376.508C195.438 376.605 195.033 376.654 194.623 376.654C193.646 376.654 192.807 376.434 192.104 375.992C191.4 375.555 190.873 374.922 190.521 374.094C190.174 373.27 190.023 372.305 190.07 371.199C190.117 370.125 190.357 369.16 190.791 368.305C191.225 367.445 191.812 366.783 192.555 366.318C193.297 365.85 194.135 365.615 195.068 365.615C196.041 365.615 196.875 365.834 197.57 366.271C198.266 366.709 198.783 367.34 199.123 368.164C199.463 368.988 199.609 369.953 199.562 371.059ZM193.551 371.557C193.496 372.111 193.547 372.537 193.703 372.834C193.863 373.131 194.115 373.279 194.459 373.279C194.693 373.279 194.918 373.18 195.133 372.98C195.352 372.781 195.531 372.496 195.672 372.125L195.678 372.072L195.947 369.125C195.729 369.012 195.494 368.955 195.244 368.955C194.787 368.955 194.408 369.188 194.107 369.652C193.811 370.117 193.625 370.752 193.551 371.557ZM200.723 370.777C200.723 369.789 200.951 369.004 201.408 368.422C201.865 367.836 202.471 367.543 203.225 367.543C203.998 367.543 204.602 367.816 205.035 368.363L205.088 367.66H206.078V373.848C206.078 374.668 205.834 375.314 205.346 375.787C204.861 376.26 204.209 376.496 203.389 376.496C202.932 376.496 202.484 376.398 202.047 376.203C201.609 376.008 201.275 375.74 201.045 375.4L201.607 374.75C202.072 375.324 202.641 375.611 203.312 375.611C203.84 375.611 204.25 375.463 204.543 375.166C204.84 374.869 204.988 374.451 204.988 373.912V373.367C204.555 373.867 203.963 374.117 203.213 374.117C202.471 374.117 201.869 373.818 201.408 373.221C200.951 372.623 200.723 371.809 200.723 370.777ZM201.812 370.9C201.812 371.615 201.959 372.178 202.252 372.588C202.545 372.994 202.955 373.197 203.482 373.197C204.166 373.197 204.668 372.887 204.988 372.266V369.371C204.656 368.766 204.158 368.463 203.494 368.463C202.967 368.463 202.555 368.668 202.258 369.078C201.961 369.488 201.812 370.096 201.812 370.9ZM208.738 367.66L208.768 368.363C209.232 367.816 209.859 367.543 210.648 367.543C211.535 367.543 212.139 367.883 212.459 368.562C212.67 368.258 212.943 368.012 213.279 367.824C213.619 367.637 214.02 367.543 214.48 367.543C215.871 367.543 216.578 368.279 216.602 369.752V374H215.518V369.816C215.518 369.363 215.414 369.025 215.207 368.803C215 368.576 214.652 368.463 214.164 368.463C213.762 368.463 213.428 368.584 213.162 368.826C212.896 369.064 212.742 369.387 212.699 369.793V374H211.609V369.846C211.609 368.924 211.158 368.463 210.256 368.463C209.545 368.463 209.059 368.766 208.797 369.371V374H207.713V367.66H208.738ZM222.156 374C222.094 373.875 222.043 373.652 222.004 373.332C221.5 373.855 220.898 374.117 220.199 374.117C219.574 374.117 219.061 373.941 218.658 373.59C218.26 373.234 218.061 372.785 218.061 372.242C218.061 371.582 218.311 371.07 218.811 370.707C219.314 370.34 220.021 370.156 220.932 370.156H221.986V369.658C221.986 369.279 221.873 368.979 221.646 368.756C221.42 368.529 221.086 368.416 220.645 368.416C220.258 368.416 219.934 368.514 219.672 368.709C219.41 368.904 219.279 369.141 219.279 369.418H218.189C218.189 369.102 218.301 368.797 218.523 368.504C218.75 368.207 219.055 367.973 219.438 367.801C219.824 367.629 220.248 367.543 220.709 367.543C221.439 367.543 222.012 367.727 222.426 368.094C222.84 368.457 223.055 368.959 223.07 369.6V372.518C223.07 373.1 223.145 373.562 223.293 373.906V374H222.156ZM220.357 373.174C220.697 373.174 221.02 373.086 221.324 372.91C221.629 372.734 221.85 372.506 221.986 372.225V370.924H221.137C219.809 370.924 219.145 371.312 219.145 372.09C219.145 372.43 219.258 372.695 219.484 372.887C219.711 373.078 220.002 373.174 220.357 373.174ZM225.947 374H224.863V367.66H225.947V374ZM224.775 365.979C224.775 365.803 224.828 365.654 224.934 365.533C225.043 365.412 225.203 365.352 225.414 365.352C225.625 365.352 225.785 365.412 225.895 365.533C226.004 365.654 226.059 365.803 226.059 365.979C226.059 366.154 226.004 366.301 225.895 366.418C225.785 366.535 225.625 366.594 225.414 366.594C225.203 366.594 225.043 366.535 224.934 366.418C224.828 366.301 224.775 366.154 224.775 365.979ZM228.865 374H227.781V365H228.865V374ZM230.629 373.432C230.629 373.244 230.684 373.088 230.793 372.963C230.906 372.838 231.074 372.775 231.297 372.775C231.52 372.775 231.688 372.838 231.801 372.963C231.918 373.088 231.977 373.244 231.977 373.432C231.977 373.611 231.918 373.762 231.801 373.883C231.688 374.004 231.52 374.064 231.297 374.064C231.074 374.064 230.906 374.004 230.793 373.883C230.684 373.762 230.629 373.611 230.629 373.432ZM236.312 373.232C236.699 373.232 237.037 373.115 237.326 372.881C237.615 372.646 237.775 372.354 237.807 372.002H238.832C238.812 372.365 238.688 372.711 238.457 373.039C238.227 373.367 237.918 373.629 237.531 373.824C237.148 374.02 236.742 374.117 236.312 374.117C235.449 374.117 234.762 373.83 234.25 373.256C233.742 372.678 233.488 371.889 233.488 370.889V370.707C233.488 370.09 233.602 369.541 233.828 369.061C234.055 368.58 234.379 368.207 234.801 367.941C235.227 367.676 235.729 367.543 236.307 367.543C237.018 367.543 237.607 367.756 238.076 368.182C238.549 368.607 238.801 369.16 238.832 369.84H237.807C237.775 369.43 237.619 369.094 237.338 368.832C237.061 368.566 236.717 368.434 236.307 368.434C235.756 368.434 235.328 368.633 235.023 369.031C234.723 369.426 234.572 369.998 234.572 370.748V370.953C234.572 371.684 234.723 372.246 235.023 372.641C235.324 373.035 235.754 373.232 236.312 373.232ZM239.764 370.771C239.764 370.15 239.885 369.592 240.127 369.096C240.373 368.6 240.713 368.217 241.146 367.947C241.584 367.678 242.082 367.543 242.641 367.543C243.504 367.543 244.201 367.842 244.732 368.439C245.268 369.037 245.535 369.832 245.535 370.824V370.9C245.535 371.518 245.416 372.072 245.178 372.564C244.943 373.053 244.605 373.434 244.164 373.707C243.727 373.98 243.223 374.117 242.652 374.117C241.793 374.117 241.096 373.818 240.561 373.221C240.029 372.623 239.764 371.832 239.764 370.848V370.771ZM240.854 370.9C240.854 371.604 241.016 372.168 241.34 372.594C241.668 373.02 242.105 373.232 242.652 373.232C243.203 373.232 243.641 373.018 243.965 372.588C244.289 372.154 244.451 371.549 244.451 370.771C244.451 370.076 244.285 369.514 243.953 369.084C243.625 368.65 243.188 368.434 242.641 368.434C242.105 368.434 241.674 368.646 241.346 369.072C241.018 369.498 240.854 370.107 240.854 370.9ZM247.914 367.66L247.943 368.363C248.408 367.816 249.035 367.543 249.824 367.543C250.711 367.543 251.314 367.883 251.635 368.562C251.846 368.258 252.119 368.012 252.455 367.824C252.795 367.637 253.195 367.543 253.656 367.543C255.047 367.543 255.754 368.279 255.777 369.752V374H254.693V369.816C254.693 369.363 254.59 369.025 254.383 368.803C254.176 368.576 253.828 368.463 253.34 368.463C252.938 368.463 252.604 368.584 252.338 368.826C252.072 369.064 251.918 369.387 251.875 369.793V374H250.785V369.846C250.785 368.924 250.334 368.463 249.432 368.463C248.721 368.463 248.234 368.766 247.973 369.371V374H246.889V367.66H247.914Z" fill="white"/>
<path d="M199.285 276.032C200.557 276.536 201.589 277.304 202.381 278.336C203.197 279.368 203.605 280.7 203.605 282.332C203.605 285.188 202.789 287.18 201.157 288.308C199.525 289.436 197.581 290 195.325 290H186.361C185.737 290 185.209 289.796 184.777 289.388C184.369 288.956 184.165 288.428 184.165 287.804V266.996C184.165 266.372 184.369 265.856 184.777 265.448C185.209 265.016 185.737 264.8 186.361 264.8H195.433C199.993 264.8 202.273 266.936 202.273 271.208C202.273 272.288 202.009 273.248 201.481 274.088C200.977 274.904 200.245 275.552 199.285 276.032ZM197.593 272C197.593 271.016 197.341 270.284 196.837 269.804C196.357 269.3 195.673 269.048 194.785 269.048H188.845V274.664H194.893C195.613 274.664 196.237 274.424 196.765 273.944C197.317 273.464 197.593 272.816 197.593 272ZM195.325 285.86C196.453 285.86 197.329 285.56 197.953 284.96C198.601 284.36 198.925 283.484 198.925 282.332C198.925 280.916 198.553 279.992 197.809 279.56C197.065 279.128 196.153 278.912 195.073 278.912H188.845V285.86H195.325ZM230.939 277.4C230.939 279.776 230.411 281.96 229.355 283.952C228.299 285.92 226.835 287.48 224.963 288.632C223.115 289.784 221.027 290.36 218.699 290.36C216.371 290.36 214.271 289.784 212.399 288.632C210.551 287.48 209.099 285.92 208.043 283.952C207.011 281.96 206.495 279.776 206.495 277.4C206.495 275.024 207.011 272.852 208.043 270.884C209.099 268.892 210.551 267.32 212.399 266.168C214.271 265.016 216.371 264.44 218.699 264.44C221.027 264.44 223.115 265.016 224.963 266.168C226.835 267.32 228.299 268.892 229.355 270.884C230.411 272.852 230.939 275.024 230.939 277.4ZM226.259 277.4C226.259 275.792 225.935 274.34 225.287 273.044C224.639 271.724 223.739 270.68 222.587 269.912C221.435 269.144 220.139 268.76 218.699 268.76C217.235 268.76 215.927 269.144 214.775 269.912C213.647 270.656 212.759 271.688 212.111 273.008C211.487 274.328 211.175 275.792 211.175 277.4C211.175 279.008 211.487 280.472 212.111 281.792C212.759 283.112 213.647 284.156 214.775 284.924C215.927 285.668 217.235 286.04 218.699 286.04C220.139 286.04 221.435 285.656 222.587 284.888C223.739 284.12 224.639 283.088 225.287 281.792C225.935 280.472 226.259 279.008 226.259 277.4ZM248.967 285.788C249.591 285.788 250.107 285.992 250.515 286.4C250.947 286.784 251.163 287.288 251.163 287.912C251.163 288.512 250.947 289.016 250.515 289.424C250.107 289.808 249.591 290 248.967 290H237.267C236.643 290 236.115 289.796 235.683 289.388C235.275 288.956 235.071 288.428 235.071 287.804V266.996C235.071 266.372 235.287 265.856 235.719 265.448C236.151 265.016 236.703 264.8 237.375 264.8C237.975 264.8 238.491 265.016 238.923 265.448C239.355 265.856 239.571 266.372 239.571 266.996V285.788H248.967ZM268.26 264.8C268.908 264.8 269.436 264.992 269.844 265.376C270.252 265.76 270.456 266.264 270.456 266.888C270.456 267.512 270.252 268.016 269.844 268.4C269.436 268.76 268.908 268.94 268.26 268.94H262.608V287.804C262.608 288.428 262.38 288.956 261.924 289.388C261.468 289.796 260.904 290 260.232 290C259.56 290 259.008 289.796 258.576 289.388C258.144 288.956 257.928 288.428 257.928 287.804V268.94H252.276C251.628 268.94 251.1 268.748 250.692 268.364C250.284 267.98 250.08 267.476 250.08 266.852C250.08 266.252 250.284 265.76 250.692 265.376C251.124 264.992 251.652 264.8 252.276 264.8H268.26Z" fill="#5FFF9F"/>
<path d="M222.771 231.167L259.018 158.597H233.958V111.833L196.667 184.403H222.771V231.167ZM226.5 96.9167C247.01 96.9167 264.538 104.375 279.081 118.919C293.625 133.462 301.083 150.99 301.083 171.5C301.083 192.01 293.625 209.537 279.081 224.081C264.538 238.625 247.01 246.083 226.5 246.083C205.99 246.083 188.463 238.625 173.919 224.081C159.375 209.537 151.917 192.01 151.917 171.5C151.917 150.99 159.375 133.462 173.919 118.919C188.463 104.375 205.99 96.9167 226.5 96.9167Z" fill="#5FFF9F"/>
<g filter="url(#filter1_i)">
<path d="M0 124.717C0 122.821 1.53888 121.284 3.43719 121.284V121.284V158.111V158.111C1.53888 158.111 0 156.574 0 154.678V124.717Z" fill="white"/>
</g>
<g filter="url(#filter2_i)">
<path d="M0 189.539C0 187.639 1.53888 186.099 3.43719 186.099V186.099V252.388V252.388C1.53888 252.388 0 250.849 0 248.949V189.539Z" fill="white"/>
</g>
<g filter="url(#filter3_i)">
<path d="M0 272.497C0 270.612 1.53888 269.083 3.43719 269.083V269.083V334.881V334.881C1.53888 334.881 0 333.353 0 331.467V272.497Z" fill="white"/>
</g>
<g filter="url(#filter4_i)">
<path d="M453.71 211.552C453.71 209.698 452.171 208.196 450.272 208.196V208.196V313.276V313.276C452.171 313.276 453.71 311.773 453.71 309.919V211.552Z" fill="white"/>
</g>
<path fill-rule="evenodd" clip-rule="evenodd" d="M233.355 27.0065H111.954C115.473 27.2184 117.482 29.6422 117.702 32.7872V37.0163C117.702 49.1152 127.544 58.9233 139.684 58.9233H233.355H237.453H314.517C326.657 58.9233 336.499 49.1152 336.499 37.0163V32.7872C336.719 29.6422 338.728 27.2184 342.246 27.0065H237.453H233.355Z" fill="#F2F2F2"/>
<path d="M198.866 36.5992C198.866 34.5556 200.584 32.8989 202.702 32.8989H251.007C253.126 32.8989 254.843 34.5556 254.843 36.5992V37.055C254.843 39.0986 253.126 40.7553 251.007 40.7553H202.702C200.584 40.7553 198.866 39.0986 198.866 37.055V36.5992Z" fill="#EAEAEA"/>
<path d="M280.868 36.8271C280.868 40.3525 278.01 43.2104 274.484 43.2104C270.959 43.2104 268.101 40.3525 268.101 36.8271C268.101 33.3017 270.959 30.4437 274.484 30.4437C278.01 30.4437 280.868 33.3017 280.868 36.8271Z" fill="#C4C4C4"/>
<path d="M278.413 36.8271C278.413 38.9966 276.654 40.7553 274.484 40.7553C272.315 40.7553 270.556 38.9966 270.556 36.8271C270.556 34.6576 272.315 32.8989 274.484 32.8989C276.654 32.8989 278.413 34.6576 278.413 36.8271Z" fill="url(#paint0_radial)"/>
<mask id="mask0" mask-type="alpha" maskUnits="userSpaceOnUse" x="198" y="32" width="57" height="9">
<path d="M198.866 36.5991C198.866 34.5555 200.584 32.8988 202.702 32.8988H251.007C253.126 32.8988 254.843 34.5555 254.843 36.5991V37.0549C254.843 39.0986 253.126 40.7552 251.007 40.7552H202.702C200.584 40.7552 198.866 39.0986 198.866 37.0549V36.5991Z" fill="#EAEAEA"/>
</mask>
<g mask="url(#mask0)">
<path fill-rule="evenodd" clip-rule="evenodd" d="M180.814 32.8988H179.716V40.7551H179.716L179.716 40.7552L268.101 40.7552L268.101 40.7551L268.101 32.8988H267.004H265.191H264.094H262.282H261.184H259.372H258.275H256.463H255.365H253.553H252.456H250.644H249.546H247.734H246.637H244.824H243.727H241.915H240.817H239.005H237.908H236.096H234.998H233.186H232.089H230.276H229.179H227.367H226.269H224.457H223.36H221.548H220.45H218.638H217.541H215.729H214.631H212.819H211.721H209.909H208.812H207H205.902H204.09H202.993H201.181H200.083H198.271H197.174H195.362H194.264H192.452H191.354H189.542H188.445H186.633H185.535H183.723H182.626L180.814 32.8988V32.8988ZM267.004 34.4947H265.191V36.0292H267.004V34.4947ZM267.004 37.625H265.191V39.1594H267.004V37.625ZM264.094 37.625V39.1594H262.282V37.625H264.094ZM264.094 34.4947V36.0292H262.282V34.4947H264.094ZM261.184 34.4947H259.372V36.0292H261.184V34.4947ZM261.184 37.625H259.372V39.1594H261.184V37.625ZM258.275 37.625V39.1594H256.463V37.625H258.275ZM258.275 34.4947V36.0292H256.463V34.4947H258.275ZM255.365 34.4947H253.553V36.0292H255.365V34.4947ZM255.365 37.625H253.553V39.1594H255.365V37.625ZM252.456 37.625V39.1594H250.644V37.625H252.456ZM252.456 34.4947V36.0292H250.644V34.4947H252.456ZM249.546 34.4947H247.734V36.0292H249.546V34.4947ZM249.546 37.625H247.734V39.1594H249.546V37.625ZM246.637 37.625V39.1594H244.824V37.625H246.637ZM246.637 34.4947V36.0292H244.824V34.4947H246.637ZM243.727 34.4947H241.915V36.0292H243.727V34.4947ZM243.727 37.625H241.915V39.1594H243.727V37.625ZM240.817 37.625V39.1594H239.005V37.625H240.817ZM240.817 34.4947V36.0292H239.005V34.4947H240.817ZM237.908 34.4947H236.096V36.0292H237.908V34.4947ZM237.908 37.625H236.096V39.1594H237.908V37.625ZM234.998 37.625V39.1594H233.186V37.625H234.998ZM234.998 34.4947V36.0292H233.186V34.4947H234.998ZM232.089 34.4947H230.276V36.0292H232.089V34.4947ZM232.089 37.625H230.276V39.1594H232.089V37.625ZM229.179 37.625V39.1594H227.367V37.625H229.179ZM229.179 34.4947V36.0292H227.367V34.4947H229.179ZM226.269 34.4947H224.457V36.0292H226.269V34.4947ZM226.269 37.625H224.457V39.1594H226.269V37.625ZM223.36 37.625V39.1594H221.548V37.625H223.36ZM223.36 34.4947V36.0292H221.548V34.4947H223.36ZM220.45 34.4947H218.638V36.0292H220.45V34.4947ZM220.45 37.625H218.638V39.1594H220.45V37.625ZM217.541 37.625V39.1594H215.729V37.625H217.541ZM217.541 34.4947V36.0292H215.729V34.4947H217.541ZM214.631 34.4947H212.819V36.0292H214.631V34.4947ZM214.631 37.625H212.819V39.1594H214.631V37.625ZM211.721 37.625V39.1594H209.909V37.625H211.721ZM211.721 34.4947V36.0292H209.909V34.4947H211.721ZM208.812 34.4947H207V36.0292H208.812V34.4947ZM208.812 37.625H207V39.1594H208.812V37.625ZM205.902 37.625V39.1594H204.09V37.625H205.902ZM205.902 34.4947V36.0292H204.09V34.4947H205.902ZM202.993 34.4947H201.181V36.0292H202.993V34.4947ZM202.993 37.625H201.181V39.1594H202.993V37.625ZM200.083 37.625V39.1594H198.271V37.625H200.083ZM200.083 34.4947V36.0292H198.271V34.4947H200.083ZM197.174 34.4947H195.362V36.0292H197.174V34.4947ZM197.174 37.625H195.362V39.1594H197.174V37.625ZM194.264 37.625V39.1594H192.452V37.625H194.264ZM194.264 34.4947V36.0292H192.452V34.4947H194.264ZM191.354 34.4947H189.542V36.0292H191.354V34.4947ZM191.354 37.625H189.542V39.1594H191.354V37.625ZM188.445 37.625V39.1594H186.633V37.625H188.445ZM188.445 34.4947V36.0292H186.633V34.4947H188.445ZM185.535 34.4947H183.723V36.0292H185.535V34.4947ZM185.535 37.625H183.723V39.1594H185.535V37.625ZM182.626 37.625V39.1594H180.814V37.625H182.626ZM182.626 34.4947V36.0292H180.814V34.4947H182.626Z" fill="#C4C4C4"/>
</g>
<defs>
<filter id="filter0_ii" x="-6.56274" y="-10" width="456.835" height="917" filterUnits="userSpaceOnUse" color-interpolation-filters="sRGB">
<feFlood flood-opacity="0" result="BackgroundImageFix"/>
<feBlend mode="normal" in="SourceGraphic" in2="BackgroundImageFix" result="shape"/>
<feColorMatrix in="SourceAlpha" type="matrix" values="0 0 0 0 0 0 0 0 0 0 0 0 0 0 0 0 0 0 127 0" result="hardAlpha"/>
<feOffset dx="-10" dy="-10"/>
<feGaussianBlur stdDeviation="10"/>
<feComposite in2="hardAlpha" operator="arithmetic" k2="-1" k3="1"/>
<feColorMatrix type="matrix" values="0 0 0 0 0 0 0 0 0 0 0 0 0 0 0 0 0 0 0.15 0"/>
<feBlend mode="normal" in2="shape" result="effect1_innerShadow"/>
<feColorMatrix in="SourceAlpha" type="matrix" values="0 0 0 0 0 0 0 0 0 0 0 0 0 0 0 0 0 0 127 0" result="hardAlpha"/>
<feOffset dy="4"/>
<feGaussianBlur stdDeviation="2"/>
<feComposite in2="hardAlpha" operator="arithmetic" k2="-1" k3="1"/>
<feColorMatrix type="matrix" values="0 0 0 0 0 0 0 0 0 0 0 0 0 0 0 0 0 0 0.07 0"/>
<feBlend mode="normal" in2="effect1_innerShadow" result="effect2_innerShadow"/>
</filter>
<filter id="filter1_i" x="0" y="121.284" width="3.43719" height="40.8271" filterUnits="userSpaceOnUse" color-interpolation-filters="sRGB">
<feFlood flood-opacity="0" result="BackgroundImageFix"/>
<feBlend mode="normal" in="SourceGraphic" in2="BackgroundImageFix" result="shape"/>
<feColorMatrix in="SourceAlpha" type="matrix" values="0 0 0 0 0 0 0 0 0 0 0 0 0 0 0 0 0 0 127 0" result="hardAlpha"/>
<feOffset dy="4"/>
<feGaussianBlur stdDeviation="2"/>
<feComposite in2="hardAlpha" operator="arithmetic" k2="-1" k3="1"/>
<feColorMatrix type="matrix" values="0 0 0 0 0 0 0 0 0 0 0 0 0 0 0 0 0 0 0.25 0"/>
<feBlend mode="normal" in2="shape" result="effect1_innerShadow"/>
</filter>
<filter id="filter2_i" x="0" y="186.099" width="3.43719" height="70.2887" filterUnits="userSpaceOnUse" color-interpolation-filters="sRGB">
<feFlood flood-opacity="0" result="BackgroundImageFix"/>
<feBlend mode="normal" in="SourceGraphic" in2="BackgroundImageFix" result="shape"/>
<feColorMatrix in="SourceAlpha" type="matrix" values="0 0 0 0 0 0 0 0 0 0 0 0 0 0 0 0 0 0 127 0" result="hardAlpha"/>
<feOffset dy="4"/>
<feGaussianBlur stdDeviation="2"/>
<feComposite in2="hardAlpha" operator="arithmetic" k2="-1" k3="1"/>
<feColorMatrix type="matrix" values="0 0 0 0 0 0 0 0 0 0 0 0 0 0 0 0 0 0 0.25 0"/>
<feBlend mode="normal" in2="shape" result="effect1_innerShadow"/>
</filter>
<filter id="filter3_i" x="0" y="269.083" width="3.43719" height="69.7977" filterUnits="userSpaceOnUse" color-interpolation-filters="sRGB">
<feFlood flood-opacity="0" result="BackgroundImageFix"/>
<feBlend mode="normal" in="SourceGraphic" in2="BackgroundImageFix" result="shape"/>
<feColorMatrix in="SourceAlpha" type="matrix" values="0 0 0 0 0 0 0 0 0 0 0 0 0 0 0 0 0 0 127 0" result="hardAlpha"/>
<feOffset dy="4"/>
<feGaussianBlur stdDeviation="2"/>
<feComposite in2="hardAlpha" operator="arithmetic" k2="-1" k3="1"/>
<feColorMatrix type="matrix" values="0 0 0 0 0 0 0 0 0 0 0 0 0 0 0 0 0 0 0.25 0"/>
<feBlend mode="normal" in2="shape" result="effect1_innerShadow"/>
</filter>
<filter id="filter4_i" x="450.272" y="208.196" width="3.43719" height="109.08" filterUnits="userSpaceOnUse" color-interpolation-filters="sRGB">
<feFlood flood-opacity="0" result="BackgroundImageFix"/>
<feBlend mode="normal" in="SourceGraphic" in2="BackgroundImageFix" result="shape"/>
<feColorMatrix in="SourceAlpha" type="matrix" values="0 0 0 0 0 0 0 0 0 0 0 0 0 0 0 0 0 0 127 0" result="hardAlpha"/>
<feOffset dy="4"/>
<feGaussianBlur stdDeviation="2"/>
<feComposite in2="hardAlpha" operator="arithmetic" k2="-1" k3="1"/>
<feColorMatrix type="matrix" values="0 0 0 0 0 0 0 0 0 0 0 0 0 0 0 0 0 0 0.25 0"/>
<feBlend mode="normal" in2="shape" result="effect1_innerShadow"/>
</filter>
<radialGradient id="paint0_radial" cx="0" cy="0" r="1" gradientUnits="userSpaceOnUse" gradientTransform="translate(272.866 36.3168) rotate(69.9659) scale(4.72442)">
<stop stop-color="#A792FE"/>
<stop offset="1" stop-color="#141023"/>
</radialGradient>
</defs>
</svg>
